# xmcd CD Database Entry
#
# Track frame offsets:
# 150
# 15490
# 39372
# 61797
# 83997
# 101862
# 126957
# 144462
# 167235
#
# Disc length: 2433 seconds
#
# Revision: 2
# Processed by: cddbd v1.4PL0 Copyright (c) Steve Scherf et al.
# Submitted via: tcd 2.0b
#
DISCID=72097f09
DTITLE=Muddy Waters - I'm Ready
DYEAR=1900
DGENRE=
TTITLE0=I'm Ready
TTITLE1=33 Years
TTITLE2=Who Do You Trust
TTITLE3=Copper Brown
TTITLE4=I'm Your Hoochie Coochie Man
TTITLE5=Mamie
TTITLE6=Rock Me
TTITLE7=Screamin' And Cryin'
TTITLE8=Good Morning Little School Girl
EXTD=
EXTT0=
EXTT1=
EXTT2=
EXTT3=
EXTT4=
EXTT5=
EXTT6=
EXTT7=
EXTT8=
PLAYORDER=
